<?xml version="1.0" encoding="UTF-8" standalone="no"?>
<?xml-model href="http://www.w3.org/2000/svg"?>

<svg viewBox="0 0 300 300" xmlns="http://www.w3.org/2000/svg">
    <circle
        style="fill:#ffffff"
        cx="149.99992"
        cy="150.00047"
        r="145.44514" />
    <path
        style="fill:#c5050c"
        d="M 150 0 C 67.211484 0 0 67.211484 0 150 C 0 232.78852 67.211484 300 150 300 C 232.78852 300 300 232.78852 300 150 C 300 67.211484 232.78852 0 150 0 z M 150 9.109375 C 227.86527 9.109375 290.89062 72.134728 290.89062 150 C 290.89062 227.86527 227.86527 290.89062 150 290.89062 C 125.56073 290.89062 102.58804 284.67563 82.5625 273.74805 C 82.116413 273.95773 81.664157 274.15835 81.195312 274.33398 C 80.109864 274.7406 78.698826 274.81549 77.320312 274.17969 C 75.941799 273.54389 74.94461 272.28083 74.421875 271.01172 C 74.0279 270.05523 73.923897 269.28015 73.957031 268.60742 C 34.952885 243.56314 9.109375 199.83788 9.109375 150 C 9.109375 103.21784 31.877318 61.815555 66.927734 36.197266 C 67.888165 33.960837 69.470989 31.827159 72.115234 30.078125 C 75.772339 27.659136 78.931905 26.967164 81.486328 26.871094 C 101.76594 15.570958 125.11679 9.109375 150 9.109375 z M 153.42578 67.410156 C 147.47333 67.536351 131.84336 69.337379 128.52734 70.765625 C 127.62273 71.155255 128.14045 73.23874 129.97852 73.337891 C 144.81509 74.13821 149.42621 76.695492 159.47656 80.927734 C 174.6805 87.330157 176.54359 94.305737 179.07617 96.171875 C 189.42837 103.7999 193.6045 98.470942 194.78125 94.984375 C 195.54779 92.713207 193.23931 89.322662 190.03125 86.603516 C 179.9523 78.060634 173.64523 70.098206 155.32031 67.464844 C 154.92904 67.408617 154.27613 67.392128 153.42578 67.410156 z M 216.42773 96.765625 C 208.05979 96.716425 203.11933 98.170931 198.66992 102.4043 C 197.64564 103.37886 196.70385 104.62333 196.10156 105.67383 C 194.08326 109.19412 192.63418 115.2328 193.73633 118.72266 C 195.3993 123.98829 198.85187 124.95895 203.88867 125.73438 C 207.79958 126.33647 212.29606 123.91089 215.63477 124.01953 C 219.92183 124.15901 224.32667 129.74567 228.50391 128.77148 C 233.38275 127.63369 239.61195 119.33675 239.0625 113.19727 C 237.96451 100.92821 221.70461 96.796635 216.42773 96.765625 z M 190.05664 100.77539 C 189.39974 100.7141 188.71462 100.72383 187.98438 100.79102 C 164.58105 102.94439 155.2498 127.00554 154.89844 135.72656 C 169.84092 135.09585 180.15444 133.90786 186.02734 131.83008 C 187.83706 131.22656 189.4801 131.03511 191.18164 131.36523 C 193.77357 129.51844 194.39798 126.12331 194.70508 123.45117 C 193.70003 122.3415 192.86847 120.95282 192.30664 119.17383 C 191.6239 117.01204 191.72277 114.44595 192.27734 111.91602 C 192.96984 108.75685 194.02723 105.97031 195.72266 103.5625 C 193.75004 101.77749 192.02735 100.95926 190.05664 100.77539 z M 189.89648 132.1582 C 188.87361 132.1151 187.69246 132.30055 186.36133 132.77148 C 178.30022 135.62341 162.85707 136.77469 139.07617 137.17578 C 117.78393 137.5349 93.646786 138.77543 89.375 139.07812 C 86.486855 139.28278 86.029579 140.18105 90.240234 141.7168 C 102.01043 146.00973 117.34117 148.60762 139.75977 149.11523 C 157.53822 149.51776 181.73912 148.55525 185.88281 147.26758 C 196.49752 143.96903 197.05662 132.4599 189.89648 132.1582 z M 174.50781 149.5 C 167.03347 149.93516 158.99237 150.12752 152.14844 150.18359 C 144.09704 165.16933 134.49121 177.06302 113.62305 180.51367 C 113.50907 186.57003 113.2634 192.15749 113.04688 197.48633 C 130.95161 195.86241 142.52929 190.31586 155.71484 178.70117 C 157.70133 176.95132 162.28934 171.73259 166.41406 165.76758 C 170.18627 160.31237 173.53303 154.17489 174.50781 149.5 z M 176.55859 149.5918 C 175.56311 154.9135 171.97616 161.23894 168.05859 166.9043 C 163.85269 172.9867 159.33567 178.17667 157.03516 180.20312 C 143.58254 192.05314 131.35817 197.8549 112.96289 199.5 C 112.75845 207.17466 112.66837 215.18518 111.68359 222.21094 C 124.24235 221.81455 142.48644 220.88815 159.65234 210.56641 C 178.05739 199.4996 193.415 184.14451 201.87109 160.19336 C 193.43958 156.51571 184.52353 152.83816 176.55859 149.5918 z M 203.67773 161.0918 C 195.03532 185.37277 179.30918 201.07987 160.68359 212.2793 C 142.85792 222.99777 123.92903 223.8458 111.36133 224.22656 C 109.34905 233.45571 108.16427 242.21661 104.02344 249.91797 C 136.28682 249.51864 149.90941 249.17526 172.56445 238.07812 C 192.71308 228.20867 211.12764 207.92908 224.78516 186.21484 C 220.01124 174.38968 211.97948 165.63393 203.67773 161.0918 z M 225.62109 188.63477 C 211.92811 210.05038 193.70353 229.94993 173.44531 239.87305 C 150.23029 251.2445 136.03453 251.51888 102.83594 251.93164 C 99.026621 258.09381 93.76234 263.11069 88.765625 266.86133 C 113.63009 268.08324 144.56028 266.39298 150.20703 265.88281 C 171.25159 263.98153 191.7218 260.57581 208.74219 249.95312 C 221.444 242.02576 229.30155 222.45415 228.50195 206.31055 C 228.11064 198.41023 226.89702 192.69515 225.62109 188.63477 z " />
    <path
        style="fill:#000000"
        d="m 92.609781,143.58947 c -1.47337,16.6128 -4.566287,34.88168 -8.195312,49.36914 -1.796314,7.17107 -5.276423,15.58415 -5.263672,18.55664 0.0052,1.22619 1.989838,1.91251 2.863281,0.94922 9.207115,-10.1541 11.394649,-23.83217 12.626953,-36.41211 1.068449,-10.90727 2.339149,-20.17753 4.035159,-30.69922 -2.11969,-0.54588 -4.140972,-1.13207 -6.066409,-1.76367 z m 7.041019,2.01562 c -1.68616,10.46781 -2.95248,19.69175 -4.01563,30.54493 -0.948885,9.68668 -2.471912,20.1401 -7.394529,29.19336 0.165259,17.44227 -2.254805,40.16918 -4.814453,51.6875 -1.003963,4.5178 -6.078724,10.57783 -5.304688,12.45703 0.500067,1.21406 1.275924,1.24625 1.673828,1.09765 2.599504,-0.97081 3.852277,-1.91812 5.697266,-3.17968 7.52394,-5.1447 16.426306,-13.55523 19.822266,-24.28126 3.35699,-10.60293 5.87804,-22.81869 5.9375,-34.875 0.054,-10.94282 1.08157,-22.0766 0.93164,-35.83789 -0.0698,-6.40433 1.14076,-15.878 1.78711,-24.16992 -5.24362,-0.70418 -10.0227,-1.57316 -14.32031,-2.63672 z M 73.293375,34.206656 c -4.709119,4.594465 -5.01972,15.907947 -0.330078,21.248047 4.845598,5.517688 10.231691,10.590556 12.273437,12.208985 2.041744,1.618417 4.299786,3.493913 6.666016,3.498046 2.366229,0.0041 7.69787,-1.450713 9.70117,-3.498046 2.0033,-2.047347 3.40787,-6.167798 3.62891,-12.669922 0.22104,-6.50213 -4.29139,-15.790481 -8.05078,-18.675782 -7.770973,-5.96415 -17.58036,-8.266053 -23.888675,-2.111328 z m 39.826175,27.054682 c -1.11975,0.67424 -2.03406,1.44977 -2.79492,2.384765 1.54633,0.108677 3.44109,0.423581 4.45117,1.31641 0.96821,0.855828 1.4693,2.35265 1.79687,4.748046 0.12261,0.896589 0.78848,1.250843 1.38086,1.753907 3.3929,0.07909 6.42687,-0.155812 9.26172,-0.525391 0.1392,-0.437834 0.43002,-0.882472 0.91602,-1.091797 1.16691,-0.502605 3.10073,-0.910362 5.57226,-1.335937 2.47153,-0.425577 5.421,-0.829755 8.35156,-1.169922 2.93058,-0.340167 5.83881,-0.615162 8.22266,-0.777344 2.38385,-0.16218 4.14427,-0.237244 5.18359,-0.08789 18.57382,2.669127 25.24343,10.851655 35.2168,19.363281 0.66254,0.565432 1.38066,0.173236 1.91992,-0.22461 1.74247,-1.285523 -16.00769,-29.5984 -40.84179,-30.419921 -2.73161,-0.09036 -5.654,-0.125977 -8.31446,-0.08399 -11.42915,0.180373 -21.85303,1.294401 -30.32226,6.150393 z m -3.77735,3.826178 c -3.08927,5.41977 -3.04056,15.416826 -6.02148,37.144534 -4.07527,-11.443886 -8.507338,-29.829685 -15.425782,-28.853519 0.697127,0.460822 1.342086,0.949334 1.708984,1.611328 0.584993,1.055526 0.956318,2.611266 1.210937,4.220703 0.25463,1.609446 0.36841,3.229251 0.28125,4.367188 -0.452751,5.91105 -1.557117,13.61888 -1.818359,18.0918 -0.710075,12.15786 0.588413,26.68495 0.330078,36.39257 2.881726,-0.19769 12.927532,-0.70813 25.001952,-1.16992 -0.96016,-10.2285 -0.10734,-19.02984 -0.27734,-28.12695 -0.2527,-13.52168 1.37365,-31.683768 1.46289,-37.302734 -1.13563,-1.664215 -0.51868,-4.051029 -2.02344,-5.386719 -1.28146,-1.137478 -2.87551,-0.915374 -4.42969,-0.988281 z m -6.08007,4.330078 c -1.21954,1.35347 -4.36407,2.951358 -4.15821,3.689453 -0.37988,-0.329045 -0.6247,-0.227066 -0.86133,0.238281 -0.0468,-0.854211 -2.87335,-0.01013 -6.175778,-0.798828 0.63857,2.579129 2.271819,5.828164 4.751958,6.994141 2.12603,-2.541397 1.94946,-3.930766 2.02539,-4.666016 0.2729,0.111372 0.69522,-0.144378 0.74414,-0.400391 1.13685,1.74418 4.3091,3.481463 5.38086,3.154297 -0.0194,-4.243687 -0.49666,-7.758122 -1.70703,-8.210937 z m -17.375005,4.460937 c -9.498129,3.24853 -8.810457,16.53137 -9.164063,28.074219 -0.371645,12.13205 5.741895,30.23553 9.957032,36.84766 0.425571,-0.35972 0.941444,-0.44694 1.421875,-0.56641 0.2729,-9.5004 -1.048052,-24.22546 -0.322266,-36.65234 0.269626,-4.61645 1.374227,-12.295226 1.820313,-18.119144 0.07031,-0.917975 -0.02735,-2.499126 -0.267578,-4.017578 -0.240232,-1.518459 -0.551152,-3.081161 -1.041016,-3.726563 -0.68756,-0.905868 -1.562509,-1.329824 -2.404297,-1.839844 z m 14.267575,3.609375 c -0.23617,-0.0031 -0.43944,0.19264 -0.28711,0.677735 1.77651,5.657152 2.4112,12.681229 3.47657,19.027339 0.14593,-3.28297 -1.15635,-14.959612 -2.73047,-19.376949 -0.0717,-0.201236 -0.27529,-0.325678 -0.45899,-0.328125 z m 2.57032,1.285156 c -0.42511,8.1e-5 -0.76946,0.344425 -0.76954,0.769532 8e-5,0.4251 0.34443,0.769451 0.76954,0.769531 0.42509,-8e-5 0.76945,-0.344431 0.76953,-0.769531 -8e-5,-0.425107 -0.34444,-0.769451 -0.76953,-0.769532 z m 1.0332,5.085938 c -0.33173,-1.34e-4 -0.60133,0.26789 -0.60156,0.599609 -1.4e-4,0.331989 0.26957,0.601697 0.60156,0.601563 0.33198,1.34e-4 0.59974,-0.269574 0.59961,-0.601563 -2.4e-4,-0.331719 -0.26789,-0.599743 -0.59961,-0.599609 z m 0.54101,4.408203 c -0.27703,-3e-6 -0.5,0.224917 -0.5,0.501953 0,0.277042 0.22297,0.501958 0.5,0.501953 0.27705,3e-6 0.50196,-0.224912 0.50196,-0.501953 0,-0.277036 -0.22491,-0.501955 -0.50196,-0.501953 z m 11.16211,60.173827 c -1.11832,10.25027 -1.68973,20.84667 -1.82617,30.52539 3.7829,-0.93843 8.06106,-1.94261 12.75195,-4.22265 -4.96004,-10.20561 -7.70076,-16.56656 -9.88672,-26.16407 -0.35721,-0.0425 -0.68652,-0.0945 -1.03906,-0.13867 z" />
</svg>
